<?xml version="1.0" encoding="UTF-8" standalone="no"?>
<!DOCTYPE svg PUBLIC "-//W3C//DTD SVG 1.1//EN" "http://www.w3.org/Graphics/SVG/1.1/DTD/svg11.dtd">
<svg width="100%" height="100%" viewBox="0 0 204 76" version="1.1" xmlns="http://www.w3.org/2000/svg" xmlns:xlink="http://www.w3.org/1999/xlink" xml:space="preserve" xmlns:serif="http://www.serif.com/" style="fill-rule:evenodd;clip-rule:evenodd;stroke-linejoin:round;stroke-miterlimit:2;">
    <g transform="matrix(1,0,0,1,-1259,-1235)">
        <g transform="matrix(1,0,0,1,827,831)">
            <g transform="matrix(1,0,0,1,-2,216)">
                <path d="M480,194C480,190.686 482.686,188 486,188L486.039,188C486.704,188.006 487.366,188.118 487.994,188.339C488.838,188.636 489.61,189.125 490.243,189.757C490.875,190.39 491.364,191.162 491.661,192.006C491.886,192.646 491.998,193.322 492,194L492,219.215C495.532,217.17 499.63,216 504,216C517.246,216 528,226.754 528,240C528,253.246 517.246,264 504,264C490.754,264 480,253.246 480,240L480,194ZM504,228C510.623,228 516,233.377 516,240C516,246.623 510.623,252 504,252C497.377,252 492,246.623 492,240C492,233.377 497.377,228 504,228Z" style="fill:rgb(255,255,255);"/>
            </g>
            <g transform="matrix(1,0,0,1,1.13687e-13,216)">
                <path d="M472.967,256.967C468.623,261.311 462.623,264 456,264C442.754,264 432,253.246 432,240C432,226.754 442.754,216 456,216C462.623,216 468.623,218.689 472.967,223.033L464.484,231.516C462.311,229.344 459.311,228 456,228C449.377,228 444,233.377 444,240C444,246.623 449.377,252 456,252C459.311,252 462.311,250.656 464.484,248.484L472.967,256.967Z" style="fill:rgb(255,255,255);"/>
            </g>
            <g transform="matrix(1,0,0,1,-156,324)">
                <path d="M755.998,121.964C755.998,118.833 753.448,118 749.033,119C744.727,119.975 744,122.869 744,126L744,150.034C743.998,150.709 743.887,151.38 743.663,152.017C743.367,152.855 742.881,153.624 742.253,154.253C741.624,154.881 740.855,155.367 740.017,155.663C739.392,155.883 738.734,155.994 738.073,156L738.032,156C737.357,155.998 736.686,155.887 736.049,155.663C735.176,155.355 734.38,154.842 733.738,154.176C733.137,153.553 732.673,152.8 732.391,151.982C732.174,151.356 732.068,150.696 732.066,150.034L732.066,113.966C732.068,113.291 732.179,112.62 732.403,111.983C732.698,111.145 733.184,110.376 733.813,109.747C734.442,109.119 735.21,108.633 736.049,108.337C736.673,108.117 737.331,108.006 737.993,108L738.034,108C740.145,108 741.999,109.096 743.06,110.75C746.074,109.057 749.483,108 753,108C758.592,108 762.347,109.631 764.702,112.259C768.232,109.709 772.529,108 777,108C787.952,108 791.858,114.256 791.997,122L792,122L792,150.034C791.998,150.709 791.887,151.38 791.663,152.017C791.367,152.855 790.881,153.624 790.253,154.253C789.624,154.881 788.855,155.367 788.017,155.663C787.392,155.883 786.734,155.994 786.073,156L786.032,156C785.369,155.998 784.71,155.891 784.083,155.675C783.265,155.392 782.512,154.929 781.89,154.328C781.224,153.685 780.71,152.889 780.403,152.017C780.179,151.38 780.068,150.709 780.066,150.034L779.998,121.964C779.998,118.833 777.448,118 773.033,119C768.727,119.975 768,122.869 768,126L768,150.034C767.998,150.709 767.887,151.38 767.663,152.017C767.367,152.855 766.881,153.624 766.253,154.253C765.624,154.881 764.855,155.367 764.017,155.663C763.392,155.883 762.734,155.994 762.073,156L762.032,156C761.369,155.998 760.71,155.891 760.083,155.675C759.265,155.392 758.512,154.929 757.89,154.328C757.224,153.685 756.71,152.889 756.403,152.017C756.179,151.38 756.068,150.709 756.066,150.034" style="fill:rgb(255,255,255);"/>
            </g>
            <g transform="matrix(1,0,0,1.09091,-4.96724,197.455)">
                <path d="M555.871,241C544.892,240.955 536,235.147 536,228C536,220.825 544.962,215 556,215C567.038,215 576,220.825 576,228L563.994,228C563.998,227.933 564,227.867 564,227.8C564,224.93 560.415,222.6 556,222.6C551.585,222.6 548,224.93 548,227.8C548,230.67 551.585,233 556,233C567.038,233 576,238.825 576,246C576,253.175 567.038,259 556,259C544.962,259 536,253.175 536,246L548.006,246C548.002,246.067 548,246.133 548,246.2C548,249.07 551.585,251.4 556,251.4C560.415,251.4 564,249.07 564,246.2C564,243.33 560.415,241 556,241L555.871,241Z" style="fill:rgb(255,255,255);"/>
            </g>
        </g>
    </g>
</svg>
